<svg xmlns="http://www.w3.org/2000/svg" viewBox="0 0 512 512" width="512" height="512">
  <defs>
    <linearGradient id="bgGrad" x1="0%" y1="0%" x2="100%" y2="100%">
      <stop offset="0%" style="stop-color:#1B5E20"/>
      <stop offset="100%" style="stop-color:#2E7D32"/>
    </linearGradient>
    <linearGradient id="woodGrad" x1="0%" y1="0%" x2="100%" y2="0%">
      <stop offset="0%" style="stop-color:#5D4037"/>
      <stop offset="50%" style="stop-color:#795548"/>
      <stop offset="100%" style="stop-color:#5D4037"/>
    </linearGradient>
    <linearGradient id="axeGrad" x1="0%" y1="0%" x2="100%" y2="100%">
      <stop offset="0%" style="stop-color:#90A4AE"/>
      <stop offset="100%" style="stop-color:#607D8B"/>
    </linearGradient>
  </defs>
  
  <!-- Background -->
  <rect width="512" height="512" rx="80" fill="url(#bgGrad)"/>
  
  <!-- Tree Log (horizontal) -->
  <ellipse cx="300" cy="320" rx="140" ry="80" fill="url(#woodGrad)"/>
  <ellipse cx="300" cy="320" rx="100" ry="55" fill="#8D6E63"/>
  <ellipse cx="300" cy="320" rx="70" ry="38" fill="#A1887F"/>
  <ellipse cx="300" cy="320" rx="40" ry="22" fill="#BCAAA4"/>
  <ellipse cx="300" cy="320" rx="15" ry="8" fill="#D7CCC8"/>
  
  <!-- Tree rings -->
  <ellipse cx="300" cy="320" rx="85" ry="46" fill="none" stroke="#6D4C41" stroke-width="2"/>
  <ellipse cx="300" cy="320" rx="55" ry="30" fill="none" stroke="#6D4C41" stroke-width="2"/>
  
  <!-- Axe Handle -->
  <rect x="80" y="100" width="22" height="200" rx="6" fill="#8B4513" transform="rotate(45 180 200)"/>
  <rect x="82" y="102" width="8" height="196" rx="4" fill="#A0522D" transform="rotate(45 180 200)"/>
  
  <!-- Axe Blade -->
  <path d="M 145 175 
           Q 100 140 85 100
           Q 80 85 95 80
           L 165 125
           Q 175 155 145 175
           Z" 
        fill="url(#axeGrad)" 
        stroke="#455A64" 
        stroke-width="3"/>
  
  <!-- Blade shine -->
  <path d="M 110 100 Q 95 115 100 135" 
        fill="none" 
        stroke="white" 
        stroke-width="4" 
        stroke-linecap="round"
        opacity="0.5"/>
  
  <!-- Leaves/Foliage -->
  <g fill="#4CAF50">
    <ellipse cx="380" cy="120" rx="45" ry="35" transform="rotate(-20 380 120)"/>
    <ellipse cx="420" cy="160" rx="40" ry="30" transform="rotate(10 420 160)"/>
    <ellipse cx="350" cy="150" rx="35" ry="28" transform="rotate(-10 350 150)"/>
    <ellipse cx="400" cy="100" rx="30" ry="22"/>
  </g>
  
  <!-- Leaf veins -->
  <g stroke="#2E7D32" stroke-width="2" fill="none">
    <path d="M 380 105 Q 380 120 375 140"/>
    <path d="M 420 145 Q 420 160 430 180"/>
  </g>
  
  <!-- Small wood chips flying -->
  <g fill="#8D6E63">
    <rect x="200" y="250" width="12" height="8" rx="2" transform="rotate(-30 200 250)"/>
    <rect x="220" y="230" width="10" height="6" rx="2" transform="rotate(15 220 230)"/>
    <rect x="180" y="270" width="8" height="5" rx="1" transform="rotate(-45 180 270)"/>
  </g>
</svg>
